<?xml version="1.0" encoding="utf-8"?>
<svg xmlns="http://www.w3.org/2000/svg" viewBox="116.937 -55.1 339.595 100" class="css-1j8o68f" xmlns:bx="https://boxy-svg.com">
  <defs id="SvgjsDefs9870">
    <linearGradient id="SvgjsLinearGradient9875">
      <stop id="SvgjsStop9876" stop-color="#b88746" offset="0"/>
      <stop id="SvgjsStop9877" stop-color="#fdf5a6" offset="1"/>
    </linearGradient>
    <bx:grid x="-25.288" y="-38.958" width="66.51" height="66.509"/>
  </defs>
  <g id="SvgjsG9871" featurekey="symbolFeature-0" transform="matrix(1.119688, 0, 0, 1.119688, 108.276071, -55.357911)" fill="url(#SvgjsLinearGradient9875)" style="">
    <path xmlns="http://www.w3.org/2000/svg" fill="url(#SvgjsLinearGradient9875)" d="M27.741,55.577C14.709,35.687,11.319,14.628,19.528,6.948c-1.814,0.18-3.486,0.687-4.937,1.636  c-9.969,6.532-6.487,29.473,7.776,51.24c14.263,21.769,33.91,34.119,43.877,27.591c1.968-1.291,3.395-3.242,4.334-5.678  C60.591,88.162,41.44,76.48,27.741,55.577z"/>
    <path xmlns="http://www.w3.org/2000/svg" fill="url(#SvgjsLinearGradient9875)" d="M67.694,30.055C53.478,8.353,33.87-3.94,23.902,2.592c-9.969,6.531-6.522,29.417,7.697,51.116  c14.217,21.698,33.829,33.996,43.796,27.467C85.361,74.641,81.918,51.756,67.694,30.055z M53.533,26.137  c2.025-1.328,5.935,1.049,8.728,5.313c2.793,4.263,3.412,8.795,1.388,10.125c-2.028,1.327-5.937-1.052-8.73-5.314  C52.126,31.998,51.505,27.466,53.533,26.137z M24.951,28.175c-2.793-4.264-3.414-8.795-1.386-10.124  c2.026-1.329,5.935,1.05,8.728,5.312c2.793,4.264,3.414,8.796,1.388,10.125C31.652,34.816,27.744,32.437,24.951,28.175z   M42.997,57.195c-2.029,1.332-5.938-1.046-8.73-5.31c-2.793-4.265-3.415-8.796-1.387-10.125c2.026-1.328,5.934,1.05,8.727,5.312  C44.402,51.335,45.021,55.869,42.997,57.195z M44.601,25.401c-2.029,1.329-5.937-1.05-8.73-5.313  c-2.793-4.263-3.414-8.795-1.386-10.124c2.026-1.328,5.935,1.05,8.728,5.312C46.006,19.54,46.626,24.073,44.601,25.401z   M50.296,43.042c-0.465,0.304-1.359-0.241-2.001-1.219c-0.639-0.976-0.78-2.015-0.317-2.319c0.465-0.305,1.36,0.24,2.001,1.217  C50.619,41.698,50.762,42.738,50.296,43.042z M63.648,74.474c-2.028,1.33-5.937-1.049-8.73-5.313  c-2.794-4.263-3.414-8.795-1.387-10.124c2.025-1.327,5.934,1.051,8.728,5.313C65.052,68.612,65.673,73.145,63.648,74.474z   M74.272,64.538c-2.028,1.329-5.936-1.05-8.729-5.313c-2.795-4.263-3.414-8.796-1.388-10.124c2.025-1.328,5.934,1.051,8.729,5.313  C75.678,58.679,76.295,63.211,74.272,64.538z"/>
  </g>
  <g style="" transform="matrix(1.380501, 0, 0, 1.380501, 90.387933, -241.140598)">
    <g id="SvgjsG9872" featurekey="nameFeature-0" transform="matrix(0.901969, 0, 0, 0.901969, 85.362321, 127.170916)" fill="#dabe76">
      <path d="M24 34.72 c2.36 3.24 3.88 4.12 5.96 5.16 l0 0.12 l-8.64 0 l0 -0.68 l-7.52 -10.6 l-4.68 0 l0 9 c0 1.44 1.4 1.88 3.04 2.08 l0 0.2 l-11.56 0 l0 -0.2 c1.64 -0.2 3.04 -0.64 3.04 -2.08 l0 -23.44 c0 -1.44 -1.4 -1.88 -3.04 -2.08 l0 -0.2 l15.08 0 c7.16 0 11.28 2.36 11.28 7.56 c0 4 -2.96 7.2 -7.8 8.52 z M9.12 12.719999999999999 l0 14.44 c2.08 0.6 4.28 0.92 6.36 0.92 c4.04 0 6.08 -1.32 6.08 -6.88 c0 -4.24 -1.2 -8.48 -8.04 -8.48 l-4.4 0 z M50.400000000000006 36.08 l0.2 0.16 c-1.2 2.24 -4.44 4.04 -8.68 4.04 c-6.4 0 -10.76 -3.96 -10.76 -9.68 c0 -6.44 5.56 -10.24 11.52 -10.24 c8.64 0 9.36 8.52 4.24 8.52 l-10.56 0 c0.08 5.68 3.32 9.44 8.12 9.44 c1.92 0 4.68 -0.6 5.92 -2.24 z M41.36 21 c-2.72 0 -4.84 2.72 -5 7.2 l8.04 -0.08 c2.72 -0.04 1.6 -7.12 -3.04 -7.12 z M72.32000000000001 36.08 l0.2 0.16 c-1.2 2.24 -4.44 4.04 -8.68 4.04 c-6.4 0 -10.76 -3.96 -10.76 -9.68 c0 -6.44 5.56 -10.24 11.52 -10.24 c8.64 0 9.36 8.52 4.24 8.52 l-10.56 0 c0.08 5.68 3.32 9.44 8.12 9.44 c1.92 0 4.68 -0.6 5.92 -2.24 z M63.28 21 c-2.72 0 -4.84 2.72 -5 7.2 l8.04 -0.08 c2.72 -0.04 1.6 -7.12 -3.04 -7.12 z M81.68 36.12 c0 2.16 0.28 3.28 2.28 3.72 l0 0.16 l-7.72 0 l0.36 -2.48 l0 -23.8 c0 -1.6 -1.04 -1.4 -3.6 -0.64 l0 -0.24 l8.88 -4.16 l-0.2 1.8 l0 25.64 z M86.56 31.2 l2 -4.6 l2.6 0.32 c4.24 0.48 6.68 0.6 7.48 -0.52 l0.16 0 l-2 4.6 l-2.6 -0.32 c-4.2 -0.48 -6.68 -0.6 -7.48 0.52 l-0.16 0 z M128.72000000000003 12 l-2.56 8.24 l-0.16 0 c0.52 -5.44 -2.52 -7.64 -7 -7.64 l-1.52 0 l0 24.72 c0 1.84 1.4 2.28 3.84 2.48 l0 0.2 l-13.16 0 l0 -0.2 c2.44 -0.2 3.84 -0.64 3.84 -2.48 l0 -24.72 c-5.96 0.04 -8.36 2.24 -10.64 7.64 l-0.16 0 l1.32 -8.24 l26.2 0 z M134.32 17.44 c-1.64 0 -2.92 -1.28 -2.92 -2.96 c0 -1.64 1.28 -2.92 2.92 -2.92 s2.92 1.28 2.92 2.92 c0 1.68 -1.28 2.96 -2.92 2.96 z M131.72 40 l0.24 -2.76 l0 -15.36 c-0.56 -0.36 -1.6 -0.64 -2.44 -0.72 l0 -0.16 l7.72 -0.6 l-0.2 2.96 l0 12.92 c0 2.16 0.36 2.92 1.56 3.72 l-6.88 0 z M169.04000000000002 40 l0.24 -2.76 l0 -9.52 c0 -4.44 -1.28 -5.52 -3.08 -5.52 c-2.08 0 -3.96 1.68 -5.4 2.84 c0.16 0.72 0.24 1.6 0.24 2.6 l0 8.64 c0 2.16 0.36 2.92 1.56 3.72 l-6.88 0 l0.24 -2.76 l0 -9.52 c0 -4.44 -1.28 -5.52 -3.08 -5.52 c-1.96 0 -3.68 1.48 -5.16 2.6 l0 11.48 c0 2.16 0.36 2.92 1.56 3.72 l-6.88 0 l0.24 -2.76 l0 -15.36 c-0.56 -0.36 -1.6 -0.64 -2.44 -0.72 l0 -0.16 l7.72 -0.6 l-0.2 2.96 l0 0.52 c1.72 -1.36 4.44 -3.52 7.64 -3.52 c1.84 0 4.24 0.76 5.24 3.88 c1.56 -1.2 4.56 -3.88 8.08 -3.88 c2.4 0 5.68 1.24 5.68 7.28 l0 8.64 c0 2.16 0.36 2.92 1.56 3.72 l-6.88 0 z M197.96 36.08 l0.2 0.16 c-1.2 2.24 -4.44 4.04 -8.68 4.04 c-6.4 0 -10.76 -3.96 -10.76 -9.68 c0 -6.44 5.56 -10.24 11.52 -10.24 c8.64 0 9.36 8.52 4.24 8.52 l-10.56 0 c0.08 5.68 3.32 9.44 8.12 9.44 c1.92 0 4.68 -0.6 5.92 -2.24 z M188.92000000000002 21 c-2.72 0 -4.84 2.72 -5 7.2 l8.04 -0.08 c2.72 -0.04 1.6 -7.12 -3.04 -7.12 z"/>
    </g>
    <g id="SvgjsG9873" featurekey="nameFeature-1" transform="matrix(0.901969, 0, 0, 0.901969, -93.913064, 163.128634)" fill="#dabe76">
      <path d="M231.04000000000002 34.72 c2.36 3.24 3.88 4.12 5.96 5.16 l0 0.12 l-8.64 0 l0 -0.68 l-7.52 -10.6 l-4.68 0 l0 9 c0 1.44 1.4 1.88 3.04 2.08 l0 0.2 l-11.56 0 l0 -0.2 c1.64 -0.2 3.04 -0.64 3.04 -2.08 l0 -23.44 c0 -1.44 -1.4 -1.88 -3.04 -2.08 l0 -0.2 l15.08 0 c7.16 0 11.28 2.36 11.28 7.56 c0 4 -2.96 7.2 -7.8 8.52 z M216.16000000000003 12.719999999999999 l0 14.44 c2.08 0.6 4.28 0.92 6.36 0.92 c4.04 0 6.08 -1.32 6.08 -6.88 c0 -4.24 -1.2 -8.48 -8.04 -8.48 l-4.4 0 z M258.64000000000004 36.72 c0 2.16 0.36 2.84 1.56 3.64 l0 0.12 l-7.64 -1.24 s0.04 0 0.04 -0.04 c-1.28 0.68 -2.88 1.08 -4.76 1.08 c-5.84 0 -9.64 -3.56 -9.64 -9.12 c0 -5.84 4.08 -10.8 12.56 -10.8 c2.56 0 5.32 0.48 7.88 1.48 l0 14.88 z M243.28000000000003 28.84 c0 5.8 3.04 10.16 7.08 10.16 c1.32 0 2.32 -0.48 3.12 -1.36 c0.04 -0.4 0.08 -0.84 0.08 -1.44 l0 -12.92 c-1.24 -1.36 -2.68 -2.16 -4.6 -2.16 c-3.76 0 -5.68 3.08 -5.68 7.72 z M278.92 40 l0.24 -2.76 l0 -9.52 c0 -4.48 -1.6 -5.52 -3.48 -5.52 c-2.48 0 -4.44 1.6 -5.96 2.72 l0 11.36 c0 2.16 0.36 2.92 1.56 3.72 l-6.88 0 l0.24 -2.76 l0 -15.36 c-0.56 -0.36 -1.6 -0.64 -2.44 -0.72 l0 -0.16 l7.72 -0.6 l-0.2 2.96 l0 0.6 c1.84 -1.28 5 -3.6 8.6 -3.6 c2.52 0 5.92 1.24 5.92 7.28 l0 8.64 c0 2.16 0.36 2.92 1.56 3.72 l-6.88 0 z M311 40 l-7.64 0 l0 -0.68 l-7.28 -8.52 l-0.8 0 l0 5.32 c0 2.16 0.28 3.28 2.28 3.72 l0 0.16 l-7.72 0 l0.36 -2.48 l0 -23.8 c0 -1.6 -1.04 -1.4 -3.6 -0.64 l0 -0.24 l8.88 -4.16 l-0.2 1.8 l0 20.2 l8 -7.92 c0.76 -0.76 1.16 -1.6 -0.8 -1.92 l0.08 -0.24 l6.96 0 l-0.08 0.24 c-1.68 0.2 -4.36 1.16 -7.8 4.6 l-2.48 2.48 l5.88 6.8 c2.76 3.16 3.88 4.24 5.96 5.28 z M316.2 17.44 c-1.64 0 -2.92 -1.28 -2.92 -2.96 c0 -1.64 1.28 -2.92 2.92 -2.92 s2.92 1.28 2.92 2.92 c0 1.68 -1.28 2.96 -2.92 2.96 z M313.6 40 l0.24 -2.76 l0 -15.36 c-0.56 -0.36 -1.6 -0.64 -2.44 -0.72 l0 -0.16 l7.72 -0.6 l-0.2 2.96 l0 12.92 c0 2.16 0.36 2.92 1.56 3.72 l-6.88 0 z M338.8 40 l0.24 -2.76 l0 -9.52 c0 -4.48 -1.6 -5.52 -3.48 -5.52 c-2.48 0 -4.44 1.6 -5.96 2.72 l0 11.36 c0 2.16 0.36 2.92 1.56 3.72 l-6.88 0 l0.24 -2.76 l0 -15.36 c-0.56 -0.36 -1.6 -0.64 -2.44 -0.72 l0 -0.16 l7.72 -0.6 l-0.2 2.96 l0 0.6 c1.84 -1.28 5 -3.6 8.6 -3.6 c2.52 0 5.92 1.24 5.92 7.28 l0 8.64 c0 2.16 0.36 2.92 1.56 3.72 l-6.88 0 z M361.04 20.36 c2.56 0 5.32 0.48 7.88 1.48 l0 19.84 c0 2.28 -7.88 6.68 -12.4 6.68 c-2.12 0 -4.92 -0.88 -6.48 -3.68 l4.72 -1.4 c1.64 3.48 3.8 3.72 5.16 3.72 c2.12 0 3.92 -1.88 3.92 -4.96 l0 -3.44 c-1.36 1.04 -3.32 1.68 -5.72 1.68 c-5.84 0 -9.64 -3.56 -9.64 -9.12 c0 -5.84 4.08 -10.8 12.56 -10.8 z M360.64 39.04 c1.36 0 2.4 -0.48 3.2 -1.4 l0 -14.36 c-1.24 -1.36 -2.68 -2.16 -4.6 -2.16 c-3.76 0 -5.68 3.08 -5.68 7.72 c0 5.8 3.04 10.2 7.08 10.2 z M380.48 40.28 c-3.08 0 -6.36 -1.04 -7.96 -2.36 l2.52 -4.08 l0.08 0 c-0.12 3.48 3.56 5.76 6.88 5.76 c2.4 0 3.48 -1.12 3.48 -3 c0 -2.44 -1.8 -3.56 -5.2 -4.04 c-6.12 -0.8 -7.36 -4.2 -7.36 -6.44 c0 -3.6 3.36 -5.76 8.04 -5.76 c3.16 0 5.64 1 7.12 2.36 l-2.72 3.76 l-0.08 0 c0.24 -3.2 -2.84 -5.52 -5.76 -5.52 c-2.64 0 -3.08 1.8 -3.08 2.88 c0 2.52 2.2 3.44 4.92 3.92 c4.56 0.8 7.28 2.84 7.28 6.2 c0 3.64 -3.2 6.32 -8.16 6.32 z"/>
    </g>
  </g>
</svg>