<?xml version="1.0" encoding="utf-8"?>
<svg xmlns="http://www.w3.org/2000/svg" viewBox="119.748 -25.396 106.892 120.943" class="css-1j8o68f" xmlns:bx="https://boxy-svg.com">
  <defs id="SvgjsDefs9870">
    <linearGradient id="SvgjsLinearGradient9875">
      <stop id="SvgjsStop9876" stop-color="#b88746" offset="0"/>
      <stop id="SvgjsStop9877" stop-color="#fdf5a6" offset="1"/>
    </linearGradient>
    <bx:grid x="-25.288" y="-38.958" width="66.51" height="66.509"/>
  </defs>
  <g transform="matrix(1, 0, 0, 1, -0.000023, -9.110532)">
    <g id="SvgjsG9871" featurekey="symbolFeature-0" transform="matrix(1.464522, 0, 0, 1.35868, 107.2698, -17.14053)" fill="url(#SvgjsLinearGradient9875)">
      <path xmlns="http://www.w3.org/2000/svg" fill="url(#SvgjsLinearGradient9875)" d="M27.741,55.577C14.709,35.687,11.319,14.628,19.528,6.948c-1.814,0.18-3.486,0.687-4.937,1.636  c-9.969,6.532-6.487,29.473,7.776,51.24c14.263,21.769,33.91,34.119,43.877,27.591c1.968-1.291,3.395-3.242,4.334-5.678  C60.591,88.162,41.44,76.48,27.741,55.577z"/>
      <path xmlns="http://www.w3.org/2000/svg" fill="url(#SvgjsLinearGradient9875)" d="M67.694,30.055C53.478,8.353,33.87-3.94,23.902,2.592c-9.969,6.531-6.522,29.417,7.697,51.116  c14.217,21.698,33.829,33.996,43.796,27.467C85.361,74.641,81.918,51.756,67.694,30.055z M53.533,26.137  c2.025-1.328,5.935,1.049,8.728,5.313c2.793,4.263,3.412,8.795,1.388,10.125c-2.028,1.327-5.937-1.052-8.73-5.314  C52.126,31.998,51.505,27.466,53.533,26.137z M24.951,28.175c-2.793-4.264-3.414-8.795-1.386-10.124  c2.026-1.329,5.935,1.05,8.728,5.312c2.793,4.264,3.414,8.796,1.388,10.125C31.652,34.816,27.744,32.437,24.951,28.175z   M42.997,57.195c-2.029,1.332-5.938-1.046-8.73-5.31c-2.793-4.265-3.415-8.796-1.387-10.125c2.026-1.328,5.934,1.05,8.727,5.312  C44.402,51.335,45.021,55.869,42.997,57.195z M44.601,25.401c-2.029,1.329-5.937-1.05-8.73-5.313  c-2.793-4.263-3.414-8.795-1.386-10.124c2.026-1.328,5.935,1.05,8.728,5.312C46.006,19.54,46.626,24.073,44.601,25.401z   M50.296,43.042c-0.465,0.304-1.359-0.241-2.001-1.219c-0.639-0.976-0.78-2.015-0.317-2.319c0.465-0.305,1.36,0.24,2.001,1.217  C50.619,41.698,50.762,42.738,50.296,43.042z M63.648,74.474c-2.028,1.33-5.937-1.049-8.73-5.313  c-2.794-4.263-3.414-8.795-1.387-10.124c2.025-1.327,5.934,1.051,8.728,5.313C65.052,68.612,65.673,73.145,63.648,74.474z   M74.272,64.538c-2.028,1.329-5.936-1.05-8.729-5.313c-2.795-4.263-3.414-8.796-1.388-10.124c2.025-1.328,5.934,1.051,8.729,5.313  C75.678,58.679,76.295,63.211,74.272,64.538z"/>
    </g>
  </g>
</svg>