<svg xmlns="http://www.w3.org/2000/svg" width="100%" height="100%" viewBox="20 23 82 93"
        class="css-1j8o68f">
        <defs id="SvgjsDefs43614"></defs>
        <g id="SvgjsG43615" featurekey="symbolContainer"
          transform="matrix(2.5005182280615883,0,0,2.5005182280615883,0.00001839893352507573,0.01043602692974153)"
          fill="none">
          <path xmlns="http://www.w3.org/2000/svg"
            d="M23.11 55.78L1.69 43.41A3.39 3.39 0 0 1 0 40.48V15.75a3.39 3.39 0 0 1 1.69-2.94L23.11.45a3.39 3.39 0 0 1 3.39 0l21.41 12.37a3.39 3.39 0 0 1 1.69 2.94v24.72a3.39 3.39 0 0 1-1.69 2.94L26.5 55.78a3.39 3.39 0 0 1-3.39 0z">
          </path>
        </g>
        <g id="SvgjsG43616" featurekey="symbolFeature-0"
          transform="matrix(1.7715117354645822,0,0,1.7715117354645822,22,24.94682977930208)" fill="#ffffff">
          <title xmlns="http://www.w3.org/2000/svg">Asset 42LETTERS3</title>
          <g xmlns="http://www.w3.org/2000/svg" id="Page-1" stroke="none" stroke-width="1" fill="none"
            fill-rule="evenodd">
            <g id="Artboard" transform="translate(-535.000000, -160.000000)">
              <g id="Asset-42LETTERS3" transform="translate(535.000000, 160.030000)">
                <path
                  d="M16.4,24.01 L16.4,35.47 L11.54,36.11 L11.54,24.29 L0.63,27.13 L0.63,41.77 C0.63,45.08 3.05,48.03 6.34,48.36 C6.55,48.38 6.76,48.39 6.96,48.39 L20.76,48.39 C25.95,48.39 30.15,44.18 30.15,39 L30.15,2.11 L16.4,8.45 L16.4,24.01 Z"
                  id="Path"></path>
                <path
                  d="M30.61,0 L15.28,7.05 L15.28,23.58 L12.37,22.46 L0,25.67 L0,43.01 C0,47.39 3.55,50.94 7.93,50.94 L35.13,50.94 C40.47,50.94 44.81,46.61 44.81,41.26 L44.81,9.71 L30.61,0 Z M30.15,38.99 C30.15,44.18 25.94,48.38 20.76,48.38 L6.96,48.38 C6.75,48.38 6.54,48.37 6.34,48.35 C3.05,48.02 0.63,45.07 0.63,41.76 L0.63,27.12 L11.55,24.28 L11.55,36.1 L16.41,35.46 L16.41,8.45 L30.15,2.11 L30.15,38.99 Z"
                  id="Shape" fill="#000000" fill-rule="nonzero"></path>
              </g>
            </g>
          </g>
        </g>
      </svg>