<?xml version="1.0" encoding="utf-8"?>
<svg xmlns="http://www.w3.org/2000/svg" width="265px" height="68.3px" viewBox="0 -5 984 141.071" class="css-1j8o68f">
	<g transform="matrix(1.407837, 0, 0, 1.407837, 0, 2.039184)">
		<g>
			<g id="SvgjsG34441" featurekey="symbolGroupContainer" transform="matrix(1.778146, 0, 0, 1.778146, 0.000013, -4.992579)" fill="#ffffff">
				<path xmlns="http://www.w3.org/2000/svg" d="M23.11 55.78L1.69 43.41A3.39 3.39 0 0 1 0 40.48V15.75a3.39 3.39 0 0 1 1.69-2.94L23.11.45a3.39 3.39 0 0 1 3.39 0l21.41 12.37a3.39 3.39 0 0 1 1.69 2.94v24.72a3.39 3.39 0 0 1-1.69 2.94L26.5 55.78a3.39 3.39 0 0 1-3.39 0z"/>
			</g>
			<g id="SvgjsG34442" featurekey="UqkkrJ-0" transform="matrix(1.249721, 0, 0, 1.249721, 16, 12.962491)" fill="#ffffff">
				<title xmlns="http://www.w3.org/2000/svg">Asset 42LETTERS3</title>
				<g xmlns="http://www.w3.org/2000/svg" id="Page-1" stroke="none" stroke-width="1" fill="none" fill-rule="evenodd">
					<g id="Artboard" transform="translate(-535.000000, -160.000000)">
						<g id="Asset-42LETTERS3" transform="translate(535.000000, 160.030000)">
							<path d="M16.4,24.01 L16.4,35.47 L11.54,36.11 L11.54,24.29 L0.63,27.13 L0.63,41.77 C0.63,45.08 3.05,48.03 6.34,48.36 C6.55,48.38 6.76,48.39 6.96,48.39 L20.76,48.39 C25.95,48.39 30.15,44.18 30.15,39 L30.15,2.11 L16.4,8.45 L16.4,24.01 Z" id="Path"/>
							<path d="M30.61,0 L15.28,7.05 L15.28,23.58 L12.37,22.46 L0,25.67 L0,43.01 C0,47.39 3.55,50.94 7.93,50.94 L35.13,50.94 C40.47,50.94 44.81,46.61 44.81,41.26 L44.81,9.71 L30.61,0 Z M30.15,38.99 C30.15,44.18 25.94,48.38 20.76,48.38 L6.96,48.38 C6.75,48.38 6.54,48.37 6.34,48.35 C3.05,48.02 0.63,45.07 0.63,41.76 L0.63,27.12 L11.55,24.28 L11.55,36.1 L16.41,35.46 L16.41,8.45 L30.15,2.11 L30.15,38.99 Z" id="Shape" fill="#212529" fill-rule="nonzero"/>
						</g>
					</g>
				</g>
			</g>
		</g>
		<g id="SvgjsG34443" featurekey="0kuQ8p-0" transform="matrix(5.658751, 0, 0, 5.658751, 106.214601, 34.500004)" fill="#ffffff" style="transform-origin: -0.128428px 13px;">
			<path d="M0.2 20 l0 -2 c0.24 0.02 0.52 0.02 0.76 0.02 c0.7 0 1.26 -0.26 1.26 -1.34 l0 -10.68 l2.2 0 l0 10.52 c0 2.8 -1.5 3.52 -3.16 3.52 c-0.4 0 -0.7 0 -1.06 -0.04 z M7.9399999999999995 9.22 l0 7.56 c0 1 0.44 1.38 1.14 1.38 s1.14 -0.38 1.14 -1.38 l0 -7.56 c0 -1 -0.44 -1.38 -1.14 -1.38 s-1.14 0.38 -1.14 1.38 z M5.74 16.64 l0 -7.28 c0 -2.24 1.18 -3.52 3.34 -3.52 s3.34 1.28 3.34 3.52 l0 7.28 c0 2.24 -1.18 3.52 -3.34 3.52 s-3.34 -1.28 -3.34 -3.52 z M18.54 20 l-2.7 -10.14 l-0.04 0 l0 10.14 l-1.98 0 l0 -14 l2.76 0 l2.22 8.38 l0.04 0 l0 -8.38 l1.96 0 l0 14 l-2.26 0 z M22.279999999999998 14 l0 -2 l4 0 l0 2 l-4 0 z M29.979999999999997 8 l0 3.9 l3.02 0 l0 2 l-3.02 0 l0 4.1 l3.8 0 l0 2 l-6 0 l0 -14 l6 0 l0 2 l-3.8 0 z M41.98 20 l-2.24 0 c-0.12 -0.36 -0.2 -0.58 -0.2 -1.72 l0 -2.2 c0 -1.3 -0.44 -1.78 -1.44 -1.78 l-0.76 0 l0 5.7 l-2.2 0 l0 -14 l3.32 0 c2.28 0 3.26 1.06 3.26 3.22 l0 1.1 c0 1.44 -0.46 2.36 -1.44 2.82 l0 0.04 c1.1 0.46 1.46 1.5 1.46 2.96 l0 2.16 c0 0.68 0.02 1.18 0.24 1.7 z M38.4 8 l-1.06 0 l0 4.3 l0.86 0 c0.82 0 1.32 -0.36 1.32 -1.48 l0 -1.38 c0 -1 -0.34 -1.44 -1.12 -1.44 z M43.17999999999999 20 l0 -14 l2.2 0 l0 14 l-2.2 0 z M51.99999999999999 20 l-2.14 -5.58 l-0.68 1.28 l0 4.3 l-2.2 0 l0 -14 l2.2 0 l0 6.06 l0.04 0 l2.84 -6.06 l2.2 0 l-3.06 6.24 l3.06 7.76 l-2.26 0 z M60.559999999999995 8 l0 3.9 l3.02 0 l0 2 l-3.02 0 l0 4.1 l3.8 0 l0 2 l-6 0 l0 -14 l6 0 l0 2 l-3.8 0 z M70.74000000000001 20 l-2.14 -5.58 l-0.68 1.28 l0 4.3 l-2.2 0 l0 -14 l2.2 0 l0 6.06 l0.04 0 l2.84 -6.06 l2.2 0 l-3.06 6.24 l3.06 7.76 l-2.26 0 z M74 20 l0 -14 l3.48 0 c2.2 0 3.28 1.22 3.28 3.46 l0 7.08 c0 2.24 -1.08 3.46 -3.28 3.46 l-3.48 0 z M77.44 8 l-1.24 0 l0 10 l1.24 0 c0.7 0 1.12 -0.36 1.12 -1.36 l0 -7.28 c0 -1 -0.42 -1.36 -1.12 -1.36 z M87.02000000000001 6 l2.24 14 l-2.22 0 l-0.38 -2.54 l-2.7 0 l-0.38 2.54 l-2.02 0 l2.24 -14 l3.22 0 z M85.28 8.48 l-1.04 7.08 l2.12 0 l-1.04 -7.08 l-0.04 0 z M92.48 14 l0 6 l-2.2 0 l0 -14 l2.2 0 l0 6 l2.5 0 l0 -6 l2.24 0 l0 14 l-2.24 0 l0 -6 l-2.5 0 z M98.82000000000001 20 l0 -14 l2.2 0 l0 12 l3.62 0 l0 2 l-5.82 0 z"/>
		</g>
	</g>
</svg>